<?xml version="1.0" encoding="UTF-8" standalone="no"?>
<!-- Created with Inkscape (http://www.inkscape.org/) -->

<svg
   width="1139.6262"
   height="958.28705"
   viewBox="0 0 301.52609 253.54677"
   version="1.1"
   id="svg5"
   inkscape:version="1.1.2 (b8e25be833, 2022-02-05)"
   sodipodi:docname="LOGO.svg"
   xmlns:inkscape="http://www.inkscape.org/namespaces/inkscape"
   xmlns:sodipodi="http://sodipodi.sourceforge.net/DTD/sodipodi-0.dtd"
   xmlns="http://www.w3.org/2000/svg"
   xmlns:svg="http://www.w3.org/2000/svg">
  <sodipodi:namedview
     id="namedview7"
     pagecolor="#ffffff"
     bordercolor="#666666"
     borderopacity="1.0"
     inkscape:pageshadow="2"
     inkscape:pageopacity="0.0"
     inkscape:pagecheckerboard="0"
     inkscape:document-units="mm"
     showgrid="false"
     units="px"
     inkscape:snap-bbox="true"
     inkscape:bbox-nodes="true"
     inkscape:bbox-paths="true"
     inkscape:snap-bbox-edge-midpoints="true"
     inkscape:snap-bbox-midpoints="true"
     inkscape:snap-intersection-paths="true"
     inkscape:zoom="0.27476272"
     inkscape:cx="100.08636"
     inkscape:cy="571.40212"
     inkscape:window-width="1366"
     inkscape:window-height="705"
     inkscape:window-x="-8"
     inkscape:window-y="-8"
     inkscape:window-maximized="1"
     inkscape:current-layer="layer1"
     inkscape:snap-global="false"
     fit-margin-top="0"
     fit-margin-left="0"
     fit-margin-right="0"
     fit-margin-bottom="0" />
  <defs
     id="defs2">
    <rect
       x="72.058502"
       y="51.47036"
       width="2007.344"
       height="277.93994"
       id="rect26393" />
    <rect
       x="271.14304"
       y="942.63153"
       width="649.65143"
       height="127.38264"
       id="rect14865" />
    <rect
       x="271.14304"
       y="944.45129"
       width="640.55267"
       height="116.46413"
       id="rect4001" />
  </defs>
  <g
     inkscape:label="Layer 1"
     inkscape:groupmode="layer"
     id="layer1"
     style="display:inline"
     transform="translate(-2.1084524,-25.560481)">
    <text
       xml:space="preserve"
       transform="scale(0.26458333)"
       id="text3999"
       style="font-style:normal;font-weight:normal;font-size:192px;line-height:1.25;font-family:sans-serif;white-space:pre;shape-inside:url(#rect4001);fill:#000000;fill-opacity:1;stroke:none"><tspan
         x="271.14258"
         y="1236.0834"
         id="tspan228"><tspan
           dx="0 47.458313 47.458313 47.458313 47.458313 47.458313 47.458313"
           style="font-size:85.3333px;font-family:Arial;-inkscape-font-specification:Arial"
           id="tspan226">2337959</tspan></tspan></text>
    <g
       id="g51668"
       transform="translate(1.555199)">
      <circle
         id="path19880"
         cx="153.27513"
         cy="123.00297"
         r="13.371219"
         style="fill:none;stroke:#000000;stroke-width:2.5635;stroke-miterlimit:4;stroke-dasharray:none;stroke-opacity:1" />
      <path
         id="path19880-0"
         style="display:inline;stroke-width:0.214733"
         d="m 151.64029,135.85932 c -6.63643,0.0393 -12.05491,-5.87167 -12.12587,-13.22806 -0.0709,-7.3564 5.23226,-13.39448 11.86794,-13.51247 6.63569,-0.11799 12.25416,2.3092 12.25416,13.22654 0,12.59606 -5.35977,13.47465 -11.99623,13.51399 z"
         sodipodi:nodetypes="ssscs" />
      <path
         id="path22301"
         style="fill:#000000;fill-opacity:1;stroke:none;stroke-width:4.08704;stroke-linecap:round;stroke-linejoin:round"
         d="m 122.47614,187.68945 c -13.21934,0.5786 -26.445693,2.13394 -39.159602,5.95629 -5.620925,1.76424 -11.292537,3.98878 -16.046393,7.58928 -2.350045,1.84999 -4.593251,4.27764 -5.073304,7.3392 -0.456968,3.3192 1.123864,6.52998 3.231774,8.99309 3.081233,3.71184 7.177593,6.39483 11.299476,8.72371 7.091523,3.92548 14.84602,6.7476 22.61539,9.01452 15.148139,4.37732 30.798839,6.78159 46.487109,8.04726 18.1053,1.3424 36.40267,0.56061 54.25763,-2.75059 8.41543,-1.58938 16.811,-3.76746 24.71133,-7.09594 4.49979,-1.93945 8.91252,-4.20556 12.46577,-7.6425 2.04477,-1.97768 3.73146,-4.80681 3.12404,-7.75074 -0.66938,-3.57533 -3.45814,-6.23024 -6.20229,-8.38061 -4.7328,-3.59404 -8.82227,-5.83479 -15.74023,-8.15631 -9.70938,-1.92256 -15.68818,-2.7903 -25.4855,-4.79584 -0.9778,-0.19196 -1.70231,0.35797 -1.31701,0.84805 0.21089,0.54896 1.92131,1.25115 2.38432,2.00865 0.57417,0.85484 -0.33174,2.52949 -1.35134,2.56971 -6.67359,2.48767 -13.37866,5.02382 -19.57837,8.56442 -4.61208,2.84242 -8.54626,6.61454 -12.53607,10.24311 -2.28403,2.1153 -4.47649,4.34238 -6.71475,6.49437 -0.93736,0.51048 -1.80882,-0.34421 -2.37473,-1.01017 -5.22513,-5.13487 -10.49454,-10.28341 -16.43781,-14.59304 -4.24465,-2.8818 -8.99808,-4.77925 -13.72865,-6.77562 -2.81317,-1.15063 -5.64081,-2.21369 -8.48704,-3.23913 -0.82658,-0.66712 -0.44849,-2.07393 0.49718,-2.43653 4.11277,-3.33419 7.489,-7.4773 10.49891,-11.80761 -0.44661,0.0143 -0.89323,0.0286 -1.33984,0.043 z"
         sodipodi:nodetypes="sccccccccccccccccccccccccccss" />
      <path
         style="fill:#000000;stroke:#000000;stroke-width:3.24317;stroke-linecap:butt;stroke-linejoin:round;stroke-miterlimit:4;stroke-dasharray:none;stroke-opacity:1"
         d="m 152.69963,124.41224 c 0,0 -8.05582,20.53226 -16.01934,43.86907 -7.96353,23.33679 -20.5799,31.92675 -20.5799,31.92675 0,0 13.63649,4.77197 19.90467,8.78276 6.26816,4.01079 17.16739,15.14496 17.16739,15.14496 0,0 -1.3487,-29.73342 -1.41671,-46.42757 -0.068,-16.69417 0.94389,-53.29597 0.94389,-53.29597 z"
         id="path19999"
         sodipodi:nodetypes="czczczc" />
      <path
         style="display:inline;fill:none;stroke:#000000;stroke-width:3.24317;stroke-linecap:round;stroke-linejoin:round;stroke-miterlimit:4;stroke-dasharray:none;stroke-opacity:1"
         d="m 153.64528,124.41224 c 0,0 8.05582,20.53226 16.01934,43.86907 7.96353,23.33679 20.5799,31.92675 20.5799,31.92675 0,0 -13.63649,4.77197 -19.90467,8.78276 -6.26816,4.01079 -17.1674,15.14496 -17.1674,15.14496 0,0 -3.5589,-30.84878 -3.49089,-47.54293 0.068,-16.69418 3.96372,-52.18061 3.96372,-52.18061 z"
         id="path19999-5"
         sodipodi:nodetypes="czczczc" />
      <circle
         id="circle50822"
         cx="153.27513"
         cy="123.00297"
         r="13.371219"
         style="fill:none;stroke:#000000;stroke-width:2.5635;stroke-miterlimit:4;stroke-dasharray:none;stroke-opacity:1" />
    </g>
    <g
       aria-label="REDES INALÃMBRICAS"
       transform="matrix(0.89737629,0,0,1,18.336635,1.0583333)"
       id="text26391"
       style="font-size:37.0417px;line-height:1.25;white-space:pre;stroke:#000000;stroke-width:0.999684;stroke-miterlimit:4;stroke-dasharray:none;stroke-opacity:1">
      <path
         d="m 1.1865763,119.98411 -18.5637603,-18.93258 6.883401,-6.749306 q 2.1567131,-2.114698 3.696132,-2.585572 1.5523333,-0.483537 3.4266052,0.110444 1.8616091,0.581066 3.45713011,2.208287 2.10203559,2.143798 2.28275369,4.575656 0.1936325,2.419191 -1.58269125,4.870171 1.37178265,-0.33183 2.34296585,-0.24554 1.9806065,0.18575 3.9822618,0.83214 l 7.7645176,2.49367 -2.58289,2.53257 -5.9284855,-1.91285 q -3.4676966,-1.13404 -4.8726878,-1.32692 -1.3920767,-0.20554 -2.23914705,0.0931 -0.84681875,0.27304 -1.87997465,1.28607 l -2.3762585,2.32997 8.2435252,8.40731 z m -8.3174892,-12.59033 4.4167414,-4.3307 q 1.4464183,-1.41824 1.85355892,-2.50137 0.40714066,-1.083139 0.11178573,-2.262715 -0.29535495,-1.179575 -1.27039555,-2.173988 -1.405578,-1.433504 -3.0427777,-1.424028 -1.6498625,-0.0034 -3.3029119,1.617409 l -4.90749,4.811892 z"
         style="font-stretch:condensed;font-family:Arial;-inkscape-font-specification:'Arial Condensed';stroke:#000000;stroke-width:0.999684;stroke-miterlimit:4;stroke-dasharray:none;stroke-opacity:1"
         id="path54132" />
      <path
         d="M 17.127826,104.82264 0.84263506,83.89781 13.246233,74.244446 l 1.921786,2.469301 -10.134125,7.887098 4.987756,6.408764 9.491822,-7.387212 1.910677,2.455028 -9.491822,7.387211 5.543186,7.122434 10.533781,-8.198138 1.921786,2.469301 z"
         style="font-stretch:condensed;font-family:Arial;-inkscape-font-specification:'Arial Condensed';stroke:#000000;stroke-width:0.999684;stroke-miterlimit:4;stroke-dasharray:none;stroke-opacity:1"
         id="path54134" />
      <path
         d="M 33.154473,92.623885 19.256144,70.04309 25.648388,66.108706 q 2.372062,-1.459988 3.860274,-1.802542 1.94913,-0.456342 4.016842,0.246143 2.067712,0.702484 4.076264,2.482051 1.999071,1.764164 3.838277,4.752345 2.36063,3.835347 2.885808,7.207541 0.515698,3.35679 -0.563574,5.57146 -1.07335,2.189787 -3.922905,3.943668 z m 0.80896,-4.172109 3.943168,-2.426994 q 2.387464,-1.469468 3.145682,-2.998054 0.748737,-1.543988 0.349257,-3.676783 -0.534616,-2.835432 -2.506548,-6.039255 -2.114138,-3.434869 -4.257737,-4.812742 -2.137677,-1.402758 -4.008621,-1.164444 -1.260725,0.160061 -3.401741,1.477843 l -3.881556,2.389071 z"
         style="font-stretch:condensed;font-family:Arial;-inkscape-font-specification:'Arial Condensed';stroke:#000000;stroke-width:0.999684;stroke-miterlimit:4;stroke-dasharray:none;stroke-opacity:1"
         id="path54136" />
      <path
         d="M 52.095169,81.328057 40.653738,57.40841 l 14.178835,-6.782131 1.350183,2.822714 -11.584549,5.541212 3.504231,7.326004 10.850317,-5.190009 1.342378,2.806398 -10.850317,5.190009 3.894457,8.141816 12.041405,-5.759738 1.350182,2.822714 z"
         style="font-stretch:condensed;font-family:Arial;-inkscape-font-specification:'Arial Condensed';stroke:#000000;stroke-width:0.999684;stroke-miterlimit:4;stroke-dasharray:none;stroke-opacity:1"
         id="path54138" />
      <path
         d="M 66.604362,65.148146 69.05609,63.95097 q 0.950306,1.983318 2.083813,2.880466 1.144343,0.873978 2.740427,1.083853 1.596085,0.209875 3.279354,-0.400713 2.414386,-0.875792 3.315037,-2.530048 0.911487,-1.677427 0.226889,-3.564729 -0.400891,-1.105176 -1.190012,-1.742448 -0.778286,-0.660442 -1.955638,-0.829808 -1.160349,-0.175534 -4.753251,0.05031 -3.19884,0.198348 -4.737581,-0.224727 -1.538741,-0.423076 -2.699918,-1.502586 -1.167345,-1.096513 -1.777933,-2.779782 -1.097824,-3.026484 0.160556,-5.657059 1.25838,-2.630576 4.57391,-3.833248 2.278365,-0.826452 4.305517,-0.542062 2.044154,0.278221 3.589891,1.622275 1.56274,1.337887 2.457202,3.591581 l -2.51507,1.181673 q -1.085992,-2.357378 -2.769754,-3.074167 -1.66676,-0.722957 -3.928121,0.09733 -2.295368,0.832619 -3.12634,2.307681 -0.83714,1.45806 -0.245055,3.090321 0.548911,1.513242 1.735263,2.025662 1.186351,0.512421 4.589223,0.240063 3.328694,-0.264691 4.774922,-0.09666 2.215682,0.273722 3.735249,1.492589 1.513399,1.201865 2.296678,3.36121 0.777111,2.142343 0.415376,4.274511 -0.367903,2.115166 -1.769133,3.662402 -1.384227,1.54107 -3.815616,2.423029 -3.791606,1.375364 -6.87942,-0.08272 -3.07081,-1.464248 -4.568193,-5.327033 z"
         style="font-stretch:condensed;font-family:Arial;-inkscape-font-specification:'Arial Condensed';stroke:#000000;stroke-width:0.999684;stroke-miterlimit:4;stroke-dasharray:none;stroke-opacity:1"
         id="path54140" />
      <path
         d="m 98.258079,63.887368 -6.309702,-25.753515 2.793184,-0.68434 6.309699,25.753514 z"
         style="font-stretch:condensed;font-family:Arial;-inkscape-font-specification:'Arial Condensed';stroke:#000000;stroke-width:0.999684;stroke-miterlimit:4;stroke-dasharray:none;stroke-opacity:1"
         id="path54142" />
      <path
         d="m 105.83759,61.951838 -4.48158,-26.133718 2.90572,-0.498294 14.78501,18.586321 -3.51863,-20.518356 2.70964,-0.464666 4.48158,26.133718 -2.90572,0.498293 -14.77024,-18.607204 3.52169,20.536182 z"
         style="font-stretch:condensed;font-family:Arial;-inkscape-font-specification:'Arial Condensed';stroke:#000000;stroke-width:0.999684;stroke-miterlimit:4;stroke-dasharray:none;stroke-opacity:1"
         id="path54144" />
      <path
         d="m 125.20056,58.671963 6.40181,-27.053592 3.08461,-0.225363 10.8071,25.796302 -3.28304,0.23986 -3.11057,-7.824669 -9.05542,0.661593 -1.79596,8.183141 z m 5.46604,-11.316606 7.34174,-0.536391 -2.78991,-7.158968 q -1.29269,-3.296795 -1.93393,-5.371738 -0.22906,2.573767 -0.8035,5.136497 z"
         style="font-stretch:condensed;font-family:Arial;-inkscape-font-specification:'Arial Condensed';stroke:#000000;stroke-width:0.999684;stroke-miterlimit:4;stroke-dasharray:none;stroke-opacity:1"
         id="path54146" />
      <path
         d="m 147.6236,57.290734 0.31383,-26.513343 2.8756,0.03404 -0.2768,23.384551 10.70661,0.126732 -0.037,3.128792 z"
         style="font-stretch:condensed;font-family:Arial;-inkscape-font-specification:'Arial Condensed';stroke:#000000;stroke-width:0.999684;stroke-miterlimit:4;stroke-dasharray:none;stroke-opacity:1"
         id="path54148" />
      <path
         d="m 162.32436,57.389991 10.87329,-25.586163 3.07843,0.298156 6.30113,27.249556 -3.27646,-0.317335 -1.7462,-8.237226 -9.03727,-0.875287 -3.15049,7.762967 z m 7.29653,-10.232493 7.32702,0.709645 -1.54241,-7.526976 q -0.71809,-3.467601 -1.00016,-5.620974 -0.65991,2.498253 -1.65837,4.927374 z m 2.50894,-17.274231 2.45048,-4.850655 3.47449,0.336515 -3.72866,4.726859 z"
         style="font-stretch:condensed;font-family:Arial;-inkscape-font-specification:'Arial Condensed';stroke:#000000;stroke-width:0.999684;stroke-miterlimit:4;stroke-dasharray:none;stroke-opacity:1"
         id="path54150" />
      <path
         d="m 184.77939,59.666747 5.30757,-25.978559 4.23525,0.865287 1.29238,19.425922 0.22444,4.051759 q 0.6654,-1.359348 1.98493,-3.932658 l 8.79642,-17.032434 3.79223,0.774775 -5.30757,25.978559 -2.71127,-0.553928 4.44229,-21.74331 -10.64453,20.476154 -2.53407,-0.517724 -1.64849,-23.375359 -4.51831,22.115444 z"
         style="font-stretch:condensed;font-family:Arial;-inkscape-font-specification:'Arial Condensed';stroke:#000000;stroke-width:0.999684;stroke-miterlimit:4;stroke-dasharray:none;stroke-opacity:1"
         id="path54152" />
      <path
         d="m 209.48115,65.089404 8.04544,-25.265131 7.77256,2.475097 q 2.36107,0.751858 3.50381,1.931964 1.14822,1.162872 1.53324,2.993826 0.38501,1.830955 -0.21318,3.709467 -0.55429,1.74064 -1.75712,2.895126 -1.20283,1.154486 -2.85046,1.559913 1.60103,1.231137 2.13017,3.145951 0.55187,1.903069 -0.18352,4.212432 -0.72991,2.29213 -2.23207,3.730929 -1.47944,1.427053 -3.30019,1.72041 -1.81526,0.276123 -4.55548,-0.596472 z m 7.40504,-13.776355 4.48085,1.426884 q 1.75787,0.559778 2.57577,0.554486 1.18376,-0.02166 2.0214,-0.685022 0.86036,-0.67511 1.32684,-2.140006 0.43355,-1.36149 0.18467,-2.42779 -0.22615,-1.078045 -0.99533,-1.702616 -0.75194,-0.619082 -3.0096,-1.338012 l -4.15341,-1.322612 z m -3.71539,11.667458 5.15298,1.640917 q 1.70617,0.543314 2.61496,0.491038 1.3146,-0.0749 2.24159,-0.899629 0.9497,-0.836475 1.44363,-2.387541 0.4555,-1.430427 0.18236,-2.599361 -0.26765,-1.186168 -1.12454,-1.952558 -0.83416,-0.778137 -2.95395,-1.453163 l -4.79107,-1.525669 z"
         style="font-stretch:condensed;font-family:Arial;-inkscape-font-specification:'Arial Condensed';stroke:#000000;stroke-width:0.999684;stroke-miterlimit:4;stroke-dasharray:none;stroke-opacity:1"
         id="path54154" />
      <path
         d="m 228.82067,71.444842 10.55717,-24.322871 8.84317,3.838316 q 2.77075,1.202624 3.78621,2.451774 1.03205,1.256351 1.18688,3.216386 0.16203,1.943444 -0.74534,4.03395 -1.19543,2.754159 -3.38061,3.836547 -2.16859,1.089591 -5.10779,0.365926 0.82356,1.146143 1.109,2.078434 0.57307,1.904966 0.72726,4.002744 l 0.61085,8.132217 -3.31827,-1.440268 -0.4582,-6.212567 q -0.25395,-3.63957 -0.60385,-5.013896 -0.33331,-1.367125 -0.92869,-2.039603 -0.57159,-0.681868 -1.8989,-1.257976 l -3.0528,-1.325047 -4.68807,10.800948 z m 8.53592,-12.443275 5.67423,2.462859 q 1.85823,0.80655 3.01496,0.776263 1.15673,-0.03029 2.13851,-0.747739 0.98179,-0.71745 1.53629,-1.994982 0.79935,-1.841636 0.1746,-3.354976 -0.61755,-1.529932 -2.74124,-2.451704 l -6.3047,-2.73651 z"
         style="font-stretch:condensed;font-family:Arial;-inkscape-font-specification:'Arial Condensed';stroke:#000000;stroke-width:0.999684;stroke-miterlimit:4;stroke-dasharray:none;stroke-opacity:1"
         id="path54156" />
      <path
         d="m 249.24983,80.817068 12.3395,-23.468973 2.5454,1.338322 -12.33949,23.468973 z"
         style="font-stretch:condensed;font-family:Arial;-inkscape-font-specification:'Arial Condensed';stroke:#000000;stroke-width:0.999684;stroke-miterlimit:4;stroke-dasharray:none;stroke-opacity:1"
         id="path54158" />
      <path
         d="m 274.3026,84.759925 1.97938,2.289554 q -3.18767,3.273474 -6.39833,3.862822 -3.18572,0.583651 -6.09593,-1.243942 -2.55792,-1.606358 -3.6015,-3.991678 -1.01865,-2.391018 -0.45133,-5.879098 0.58264,-3.478462 2.93927,-7.231105 2.32777,-3.706692 5.0829,-5.543198 2.78006,-1.842204 5.57355,-1.903302 2.80311,-0.07641 5.2385,1.452991 2.66514,1.67369 3.53129,4.545597 0.87577,2.85659 -0.37835,6.554086 l -2.82229,-0.811288 q 1.71803,-5.456488 -1.97334,-7.774645 -1.83803,-1.154269 -3.78229,-1.051084 -1.93464,0.08787 -3.9969,1.569264 -2.04694,1.491015 -3.9611,4.53908 -2.89529,4.61039 -2.72415,7.942847 0.18075,3.317141 2.87653,5.010069 1.9912,1.250458 4.31593,0.74548 2.34966,-0.510676 4.64816,-3.08245 z"
         style="font-stretch:condensed;font-family:Arial;-inkscape-font-specification:'Arial Condensed';stroke:#000000;stroke-width:0.999684;stroke-miterlimit:4;stroke-dasharray:none;stroke-opacity:1"
         id="path54160" />
      <path
         d="m 272.83552,94.853113 23.02539,-15.579198 2.42298,1.922185 -9.50769,26.30297 -2.57885,-2.04584 3.00721,-7.864967 -7.11308,-5.642907 -6.86131,4.807461 z m 11.68381,-4.629457 5.76698,4.575026 2.7926,-7.157919 q 1.28021,-3.301664 2.21281,-5.262997 -1.91086,1.739358 -4.06846,3.236801 z"
         style="font-stretch:condensed;font-family:Arial;-inkscape-font-specification:'Arial Condensed';stroke:#000000;stroke-width:0.999684;stroke-miterlimit:4;stroke-dasharray:none;stroke-opacity:1"
         id="path54162" />
      <path
         d="m 295.72832,102.38556 2.1311,1.7037 q -1.38597,1.70755 -1.71183,3.11593 -0.30028,1.40826 0.19296,2.94066 0.49325,1.53239 1.76537,2.79253 1.82464,1.80746 3.70519,1.91367 1.90613,0.10609 3.319,-1.32022 0.82737,-0.83523 1.0657,-1.82114 0.26391,-0.98604 -0.0868,-2.12264 -0.33784,-1.12387 -2.07932,-4.27461 -1.548,-2.80635 -1.82402,-4.37814 -0.27601,-1.571797 0.20284,-3.083214 0.49157,-1.524267 1.75171,-2.796381 2.26569,-2.287235 5.18173,-2.275452 2.91605,0.01178 5.42173,2.493866 1.72185,1.705636 2.33219,3.65953 0.6232,1.966621 0.0698,3.938811 -0.54056,1.98492 -2.1948,3.75768 l -2.14419,-1.76758 q 1.666,-1.99024 1.5934,-3.81879 -0.0598,-1.815812 -1.76875,-3.50872 -1.7347,-1.718365 -3.42347,-1.838269 -1.67604,-0.132755 -2.89799,1.10081 -1.13285,1.143618 -1.08837,2.435139 0.0445,1.29152 1.74668,4.25061 1.66353,2.89533 2.13048,4.27438 0.70065,2.11973 0.2492,4.0147 -0.43873,1.88212 -2.05526,3.51402 -1.60381,1.61906 -3.68572,2.20443 -2.06917,0.57252 -4.06718,-0.0319 -1.98516,-0.59171 -3.82266,-2.4119 -2.86547,-2.83849 -2.86883,-6.25325 0.009,-3.40203 2.86009,-6.40824 z"
         style="font-stretch:condensed;font-family:Arial;-inkscape-font-specification:'Arial Condensed';stroke:#000000;stroke-width:0.999684;stroke-miterlimit:4;stroke-dasharray:none;stroke-opacity:1"
         id="path54164" />
    </g>
    <g
       id="g53916"
       transform="matrix(0.90737869,0,0,0.93822359,15.332061,7.5192933)">
      <path
         id="circle51795"
         style="display:inline;fill:none;stroke:#000000;stroke-width:2.9745;stroke-linecap:round;stroke-miterlimit:4;stroke-dasharray:none;stroke-opacity:1"
         d="m 207.44176,155.7113 c 7.44015,-9.94643 11.46346,-21.71469 11.55006,-33.78413 -10e-4,-12.21434 -4.03613,-24.140714 -11.57123,-34.202617 M 99.438967,87.850099 C 91.858373,97.855301 87.753516,109.73595 87.66507,121.92717 c 0.08673,12.06951 4.110308,23.83775 11.550699,33.78413"
         sodipodi:nodetypes="cccccc" />
      <path
         id="path53515"
         style="display:inline;fill:none;stroke:#000000;stroke-width:2.9745;stroke-linecap:round;stroke-miterlimit:4;stroke-dasharray:none;stroke-opacity:1"
         d="m 220.43159,163.87142 c 9.22615,-12.33403 14.21526,-26.92724 14.32263,-41.89396 -0.001,-15.14634 -5.00499,-29.935657 -14.34888,-42.412899 M 86.502879,79.720242 C 77.102577,92.127149 72.01234,106.85977 71.902665,121.97746 c 0.107543,14.96679 5.096995,29.56002 14.323411,41.89396"
         sodipodi:nodetypes="cccccc" />
      <path
         id="path53757"
         style="display:inline;fill:none;stroke:#000000;stroke-width:2.9745;stroke-linecap:round;stroke-miterlimit:4;stroke-dasharray:none;stroke-opacity:1"
         d="m 194.63333,147.6651 c 5.6791,-7.59214 8.7501,-16.57488 8.8162,-25.78755 -0.001,-9.32322 -3.08079,-18.42667 -8.83236,-26.106946 m -82.42275,0.09579 c -5.7863,7.636996 -8.91955,16.705546 -8.98707,26.011126 0.0663,9.21271 3.13741,18.19546 8.8167,25.78754"
         sodipodi:nodetypes="cccccc" />
      <path
         id="path53759"
         style="display:inline;fill:none;stroke:#000000;stroke-width:2.9745;stroke-linecap:round;stroke-miterlimit:4;stroke-dasharray:none;stroke-opacity:1"
         d="m 183.10574,140.42354 c 4.09413,-5.47328 6.30807,-11.94907 6.35572,-18.59063 -7.2e-4,-6.72124 -2.22098,-13.28405 -6.36736,-18.82088 m -59.41979,0.0691 c -4.17142,5.50564 -6.43024,12.04329 -6.4789,18.75181 0.0477,6.64158 2.26183,13.11738 6.35607,18.59061"
         sodipodi:nodetypes="cccccc" />
      <path
         id="path53761"
         style="display:inline;fill:none;stroke:#000000;stroke-width:2.9745;stroke-linecap:round;stroke-miterlimit:4;stroke-dasharray:none;stroke-opacity:1"
         d="m 172.43204,133.71839 c 2.6266,-3.51138 4.04694,-7.66591 4.07752,-11.92681 -4.7e-4,-4.312 -1.42487,-8.52237 -4.08501,-12.07452 m -38.1207,0.0443 c -2.67617,3.53213 -4.12531,7.72636 -4.15654,12.03022 0.0307,4.26091 1.45106,8.41544 4.07774,11.92679"
         sodipodi:nodetypes="cccccc" />
    </g>
  </g>
  <g
     inkscape:groupmode="layer"
     id="layer2"
     inkscape:label="LOGO"
     style="display:inline"
     transform="translate(-2.1084524,-25.560481)">
    <text
       xml:space="preserve"
       transform="matrix(0.46930078,0,0,0.43561876,-56.13806,-167.78669)"
       id="text14863"
       style="font-style:normal;font-weight:normal;font-size:90px;line-height:1.25;font-family:sans-serif;white-space:pre;shape-inside:url(#rect14865);fill:#000000;fill-opacity:1;stroke:none;stroke-width:0;stroke-miterlimit:4;stroke-dasharray:none"><tspan
         x="271.14258"
         y="1024.7406"
         id="tspan232"><tspan
           style="font-weight:bold;font-family:Arial;-inkscape-font-specification:'Arial Bold'"
           id="tspan230">2337959</tspan></tspan></text>
  </g>
</svg>
